<?xml version="1.0" encoding="UTF-8" standalone="no"?><!DOCTYPE svg PUBLIC "-//W3C//DTD SVG 1.1//EN" "http://www.w3.org/Graphics/SVG/1.1/DTD/svg11.dtd"><svg width="100%" height="100%" viewBox="0 0 568 39" version="1.1" xmlns="http://www.w3.org/2000/svg" xmlns:xlink="http://www.w3.org/1999/xlink" xml:space="preserve" xmlns:serif="http://www.serif.com/" style="fill-rule:evenodd;clip-rule:evenodd;stroke-linejoin:round;stroke-miterlimit:2;"><g><g><path d="M50.494,0l-50.494,0l0,38l6.069,0l-0,0.042l44.425,-0l0,-8.164l-38.356,-0l-0,-6.775l30.476,-0l0,-8.164l-30.476,-0l-0,-6.775l38.356,0l0,-8.164Z" style="fill:#fff;"/></g><g><path d="M234.344,0l-50.494,0l-0,38l6.068,0l0,0.042l44.426,-0l-0,-8.164l-38.357,-0l0,-6.775l30.477,-0l-0,-8.164l-30.477,-0l0,-6.775l38.357,0l-0,-8.164Z" style="fill:#fff;"/></g><g><path d="M399.366,0l-50.494,0l-0,38l6.068,0l0,0.042l44.426,-0l-0,-8.164l-38.357,-0l0,-6.775l30.477,-0l0,-8.164l-30.477,-0l0,-6.775l38.357,0l-0,-8.164Z" style="fill:#fff;"/></g><g><path d="M483.683,11.04l-0,-3.128c-0,-4.37 -3.542,-7.912 -7.912,-7.912c-10.254,0 -28.029,0 -38.282,0c-4.37,0 -7.912,3.542 -7.912,7.912l-0,7.153c-0,4.37 3.542,7.912 7.912,7.912l34.819,-0l0,7.153l-31.357,-0l0,-3.096l-11.374,-0l-0,3.096c-0,4.369 3.542,7.912 7.912,7.912c10.253,-0 28.028,-0 38.282,-0c4.37,-0 7.912,-3.543 7.912,-7.912l-0,-7.153c-0,-4.37 -3.542,-7.912 -7.912,-7.912l-34.82,-0l0,-7.153l31.357,0l0,3.128l11.375,0Z" style="fill:#fff;"/></g><g><path d="M310.749,0l-46.194,0l-0,38.042l11.374,-0l0,-12.808l15.727,0l15.303,12.766l11.702,-0l-0,-2.937l-11.782,-9.829l3.87,0c4.37,0 7.912,-3.542 7.912,-7.912c-0,0 -0,-9.41 -0,-9.41c-0,-4.37 -3.542,-7.912 -7.912,-7.912Zm-34.82,7.912l0,9.41l31.357,0l0,-9.41l-31.357,0Z" style="fill:#fff;"/></g><g><path d="M535.432,7.912l0,30.13l11.03,-0l-0,-30.13l21.538,0l0,-7.912l-54.106,0l-0,7.912l21.538,0Z" style="fill:#fff;"/></g><g><path d="M112.138,38l-31.433,-38l13.996,0l22.471,27.165l22.47,-27.165l13.997,0l-31.433,38l-10.068,0Z" style="fill:#fff;"/></g></g></svg>