<svg width="160" height="99" viewBox="0 0 160 99" fill="none" xmlns="http://www.w3.org/2000/svg">
<path d="M10.8485 29.4397C10.6729 29.4104 10.4095 29.4104 10.3217 29.4397C10.2339 29.469 10.029 30.0837 9.97045 30.1715C9.91192 30.2594 10.4387 30.4057 10.4095 30.5814C10.3802 30.757 10.0206 30.9034 9.96627 30.9912C9.91192 31.079 9.38509 30.8741 9.26802 30.9912C9.15095 31.1083 8.59485 31.9907 8.44433 32.0492C8.29799 32.1078 7.97604 31.6687 7.85897 31.7272C7.7419 31.7858 7.6541 32.342 7.53702 32.4298C7.41995 32.5176 7.098 32.5762 7.098 32.7518C7.098 32.9275 7.53702 33.0446 7.8297 33.0738C8.12238 33.1031 8.4736 33.1324 8.59067 33.2202C8.70774 33.308 8.67848 33.6008 8.97116 33.63C9.26384 33.6593 9.43945 33.1909 9.58579 33.2202C9.73213 33.2495 10.1419 33.6593 10.3175 33.8057C10.4931 33.952 10.8443 34.3326 11.0492 34.3326C11.2541 34.3326 11.8102 34.157 11.9899 34.0399C12.1656 33.9228 12.3704 33.7764 12.5168 33.8935C12.6631 34.0106 12.6338 34.5668 12.7509 34.6546C12.868 34.7424 13.1021 34.801 13.1899 34.9181C13.2777 35.0352 13.0436 35.2694 13.0436 35.3572C13.0436 35.445 12.868 36.0012 12.9265 36.1183C12.9851 36.2354 13.4533 36.3232 13.5997 36.4403C13.746 36.5574 14.1265 36.938 14.068 37.1136C14.0094 37.2893 13.7753 37.1722 13.7168 37.2893C13.6582 37.4064 13.5412 37.9626 13.4533 38.1131C13.3655 38.2595 12.9265 37.9668 12.8387 38.1131C12.7509 38.2595 12.6046 38.64 12.6631 38.7571C12.7216 38.8742 13.1607 39.1963 13.1021 39.3719C13.0436 39.5475 12.6046 40.1037 12.4875 40.225C12.3704 40.3421 11.9314 40.4592 11.6931 40.5763C11.4589 40.6934 11.1077 41.3709 10.8987 41.5173C10.6938 41.6636 10.3718 42.0735 10.2548 42.0149C10.1377 41.9564 9.81575 41.3709 9.64014 41.4002C9.46453 41.4294 9.28892 41.6929 9.25966 41.81C9.23039 41.9271 9.31819 42.1906 9.14258 42.2198C8.96698 42.2491 8.58649 41.1325 8.38161 41.1618C8.17674 41.1911 7.91333 41.396 7.88406 41.5423C7.85479 41.6887 8.00113 42.2449 8.0304 42.3955C8.05967 42.5418 7.88406 42.6004 7.82552 42.7175C7.76699 42.8346 7.73772 43.3908 7.67918 43.5413C7.62065 43.6877 8.1182 44.2146 8.26454 44.3317C8.41088 44.4488 8.41088 44.7708 8.46942 45.0636C8.52796 45.3563 8.70356 46.0338 8.82064 46.0923C8.93771 46.1509 8.52796 46.2387 8.42761 46.3767C8.33144 46.5147 8.38998 47.0416 8.23109 47.1002C8.07639 47.1587 7.70427 46.7489 7.5872 46.8451C7.47012 46.9413 7.5872 47.8446 7.50775 47.9617C7.42831 48.0788 6.98093 48.6266 6.99765 48.7646C7.01856 48.9026 7.19417 49.3125 7.31124 49.371C7.42831 49.4296 7.70427 49.371 7.83807 49.371C7.97604 49.371 8.0513 49.8018 8.15165 49.8979C8.24782 49.9941 7.75862 50.4667 7.77953 50.5838C7.80044 50.7009 8.05549 50.9769 8.15165 50.956C8.24782 50.9351 8.69938 50.7009 8.87499 50.68C9.0506 50.6591 9.38509 50.6591 9.50216 50.7009C9.61924 50.7385 9.85338 51.1107 9.77812 51.2487C9.69868 51.3867 9.11332 51.4244 8.97534 51.5247C8.83736 51.6209 8.77882 52.0349 8.68266 52.152C8.58649 52.2691 8.17256 52.3486 8.15583 52.5242C8.13493 52.6999 8.50705 53.4066 8.62412 53.4443C8.74119 53.4819 9.17185 53.4066 9.30983 53.4443C9.44781 53.4819 9.60251 53.875 9.48544 53.9921C9.36837 54.1092 8.58649 54.1092 8.44851 54.1468C8.31054 54.1845 7.64573 54.5776 7.54957 54.6947C7.4534 54.8118 7.57047 55.046 7.70427 55.0083C7.84225 54.9707 8.252 54.9958 8.42761 55.0125C8.60322 55.0292 9.20948 55.5352 9.18858 55.6523C9.16767 55.7694 8.69938 55.8489 8.52377 55.9284C8.34817 56.0078 8.13075 55.6147 7.95514 55.6356C7.77953 55.6565 7.75862 56.1458 7.54539 56.1458C7.33215 56.1458 7.25271 55.5394 6.99765 55.5603C6.74261 55.5812 6.50846 55.7945 6.31195 55.7945C6.11543 55.7945 5.80185 55.5812 5.5677 55.5394C5.33356 55.5018 5.23321 55.7527 5.01997 55.7736C4.80673 55.7945 4.45134 55.6565 4.33426 55.6774C4.21719 55.6983 3.84507 55.5227 3.7489 55.598C3.65274 55.6774 3.69037 56.9697 3.5733 57.0659C3.45622 57.162 3.14264 56.9488 3.02556 57.0659C2.90849 57.1829 3.20117 57.6722 3.02556 57.7308C2.84996 57.7893 2.51546 58.0235 2.4193 58.0821C2.32313 58.1406 2.02627 57.8855 1.85066 57.9273C1.67505 57.965 1.57471 58.5714 1.51617 58.6885C1.45763 58.8056 0.888998 59.3158 0.755201 59.391C0.617223 59.4705 0.0109567 60.2525 -0.00576787 60.3696C-0.0266736 60.4867 0.42489 61.0136 0.621404 60.9969C0.817918 60.9802 1.28621 60.8213 1.44509 60.7836C1.59979 60.746 1.83812 60.3529 1.97192 60.2943C2.10989 60.2358 2.83323 60.0602 2.9503 60.0183C3.06738 59.9807 4.00813 60.194 4.16284 60.2149C4.31754 60.2358 4.31754 60.5871 4.41789 60.7251C4.51405 60.8631 5.12032 61.1349 5.2583 61.2938C5.39628 61.4486 5.31683 62.3101 5.2583 62.4481C5.19976 62.5861 4.67294 62.8412 4.59349 62.8997C4.51405 62.9583 4.45552 63.5061 4.47642 63.5856C4.49733 63.665 4.98652 63.6232 5.04506 63.7027C5.1036 63.7821 4.83182 64.2714 4.90708 64.4052C4.98652 64.5432 5.33774 64.8569 5.45481 64.974C5.57188 65.0911 5.55098 65.5009 5.60951 65.5595C5.66805 65.618 6.0778 65.618 6.13634 65.6975C6.19487 65.7769 6.21578 66.3248 6.29104 66.3624C6.37048 66.4 7.09382 66.4 7.2318 66.4586C7.36978 66.5171 7.21089 67.3786 7.17326 67.4748C7.13563 67.571 6.62553 67.2406 6.52937 67.3201C6.4332 67.3995 6.31613 67.9474 6.27432 68.0645C6.23669 68.1815 6.72588 68.399 6.91821 68.5328C7.11473 68.6708 7.17326 69.1601 7.31124 69.2354C7.44922 69.3149 7.83807 69.4487 8.13493 69.6452C8.42761 69.8418 8.62412 70.4691 8.77882 70.6824C8.93353 70.8957 9.28892 71.0337 9.44363 71.1131C9.59833 71.1926 9.36419 71.6401 9.44363 71.7781C9.52307 71.9161 9.75721 72.3468 9.83665 72.6019C9.9161 72.857 10.6771 73.639 10.8736 73.777C11.0701 73.915 11.3628 73.6976 11.5384 73.777C11.714 73.8565 11.8143 74.1702 12.0067 74.2872C12.2032 74.4043 12.5753 74.3667 12.7509 74.4253C12.9265 74.4838 13.2025 74.7974 13.3363 74.994C13.4743 75.1906 13.4157 75.8178 13.5495 76.0102C13.6875 76.2068 13.8924 76.5957 14.0722 76.6961C14.2519 76.7923 14.507 76.5204 14.5864 76.5413C14.6659 76.5622 14.9586 77.0892 15.0965 77.1101C15.2345 77.131 15.8575 77.0306 16.0164 77.1101C16.1711 77.1895 16.4094 77.1895 16.585 77.3066C16.7606 77.4237 17.0366 77.7959 17.2289 77.9716C17.4213 78.1472 17.7181 78.2852 17.8937 78.4232C18.0693 78.5612 17.7181 79.0087 17.7557 79.1843C17.7934 79.36 18.0693 79.5565 18.1488 79.7113C18.2282 79.866 18.1111 80.2967 18.1488 80.4138C18.1864 80.5309 19.3822 81.7855 19.4784 81.8608C19.5745 81.9403 20.0846 81.8985 20.1641 81.8608C20.2435 81.8232 20.3188 82.3292 20.3982 82.3877C20.4777 82.4463 21.339 82.6428 21.5146 82.7223C21.6902 82.8018 22.2003 83.4249 22.3968 83.5252C22.5933 83.6214 23.1578 83.7385 23.279 83.818C23.3961 83.8974 23.6303 84.3449 23.7891 84.462C23.9438 84.5791 24.3954 84.2278 24.5334 84.2654C24.6714 84.3031 24.5334 84.6753 24.5334 84.7338C24.5334 84.7924 24.7299 85.0684 24.8093 85.2231C24.8888 85.3779 25.2024 85.5953 25.1815 85.7919C25.1606 85.9884 24.9055 86.3188 24.985 86.4359C25.0644 86.553 25.6121 86.3773 25.7668 86.4359C25.9215 86.4944 25.8839 86.9043 25.9215 87.0046C25.9592 87.1008 25.7459 87.2179 25.725 87.3183C25.7041 87.4145 26.2727 87.4563 26.4107 87.4939C26.5487 87.5316 26.5069 87.887 26.5069 88.0041C26.5069 88.1212 26.879 88.3763 26.9585 88.4725C27.0379 88.5687 26.8205 88.9242 26.9585 89.0204C27.0964 89.1165 27.41 89.1165 27.5062 89.1584C27.6024 89.196 27.0964 89.3926 27.0964 89.5097C27.0964 89.6267 27.272 89.9404 27.3097 90.0199C27.3473 90.0993 27.8574 89.9822 27.9368 90.0199C28.0163 90.0575 27.8198 90.3126 27.9368 90.5091C28.0539 90.7057 28.2295 90.6053 28.3884 90.5886C28.5431 90.5677 28.8191 90.8228 28.9947 90.8813C29.1703 90.9399 29.4253 90.5468 29.5633 90.5677C29.7013 90.5886 29.1912 91.195 29.0532 91.4292C28.9152 91.6634 28.9738 91.8599 29.1494 91.9979C29.325 92.1359 29.6177 91.8599 29.7556 91.9017C29.8936 91.9394 29.9103 92.3325 30.0901 92.4287C30.2657 92.5249 30.4623 92.5081 30.617 92.4287C30.7717 92.3492 31.01 92.6043 31.1062 92.6043C31.2023 92.6043 31.2441 91.8432 31.3988 91.8223C31.5535 91.8014 32.1807 92.2907 32.3772 92.3325C32.5737 92.3701 34.0413 92.1359 34.196 92.1945C34.3507 92.253 34.6476 92.8803 34.8399 93.0351C35.0364 93.1898 35.5047 93.4282 35.6636 93.5829C35.8183 93.7376 36.1528 95.147 36.3493 95.3644C36.5458 95.5777 37.3068 95.699 37.5618 95.7366C37.8169 95.7743 38.1472 95.5819 38.3437 95.6404C38.5402 95.699 38.3646 96.0712 38.5193 96.1506C38.674 96.2301 39.6148 96.7194 39.8113 96.7947C40.0078 96.8741 40.104 96.5396 40.2043 96.5814C40.3047 96.6232 40.9068 97.6185 41.1827 97.6771C41.4587 97.7356 41.8475 97.2087 41.9646 97.1669C42.0817 97.1292 42.4162 96.9536 42.5332 96.9703C42.6503 96.9912 42.6879 97.3634 42.8677 97.3801C43.0433 97.401 43.4364 97.3007 43.7081 97.3425C43.9841 97.3801 44.2935 97.0498 44.4315 97.0498C44.5695 97.0498 44.628 97.4011 44.9207 97.4805C45.2134 97.56 45.7025 97.6269 45.8614 97.6812C46.0161 97.7356 46.1541 98.1287 46.3506 98.1664C46.5471 98.204 46.9569 97.9531 47.1116 97.8903C47.2663 97.8318 47.2496 97.2463 47.3666 97.1878C47.4837 97.1292 47.7597 97.2087 47.9353 97.3634C48.1109 97.5182 47.9938 97.7942 48.1109 97.8527C48.228 97.9113 48.7172 97.8736 48.8928 97.8903C49.0684 97.9113 49.1645 97.401 49.2858 97.3801C49.407 97.3592 50.168 98.112 50.3436 98.1664C50.5192 98.2207 51.0879 98.3964 51.2844 98.3796C51.4809 98.3587 51.598 98.1454 51.715 98.1454C51.8321 98.1454 52.3422 98.6347 52.476 98.6347C52.614 98.6347 53.1617 97.8736 53.2788 97.8736C53.3959 97.8736 53.8641 98.7727 53.9812 98.8313C54.0983 98.8898 54.7631 99.0069 54.9596 98.986C55.1561 98.9651 54.784 98.2625 54.9596 98.204C55.1352 98.1454 55.3317 97.9489 55.4112 97.8694C55.4906 97.79 55.8795 98.0242 55.9798 97.9656C56.076 97.9071 56.2934 97.3216 56.3896 97.2798C56.4857 97.2421 57.092 97.3592 57.2509 97.2798C57.4056 97.2003 58.0118 96.6148 58.1498 96.4977C58.2878 96.3806 58.6766 95.7533 58.7185 95.6153C58.7561 95.4773 59.0906 95.5192 59.2076 95.4021C59.3247 95.285 59.2453 94.6995 59.3247 94.5406C59.4042 94.3858 60.0272 94.0722 60.0857 93.9718C60.1442 93.8756 59.931 93.0309 60.0857 92.9723C60.2404 92.9138 60.8299 92.8761 60.9679 92.8761C61.1059 92.8761 61.2439 93.2274 61.3609 93.3069C61.478 93.3863 62.0048 93.4616 62.1637 93.5034C62.3184 93.5411 63.163 94.2478 63.3177 94.2478C63.4724 94.2478 63.5519 94.0513 63.6689 94.0136C63.786 93.976 63.7066 93.3278 63.7651 93.3111C63.8236 93.2902 64.409 93.3696 64.6055 93.332C64.802 93.2943 65.0153 92.8636 65.0947 92.8427C65.1741 92.8218 65.5463 92.8803 65.6633 92.8636C65.7804 92.8427 65.9184 92.2781 66.0564 92.2572C66.1944 92.2363 66.2905 92.6085 66.4494 92.6294C66.6041 92.6503 66.9595 92.688 67.1518 92.7089C67.3442 92.7298 67.503 92.3576 67.6201 92.3743C67.7372 92.3952 68.0717 92.7256 68.264 92.7256C68.4605 92.7256 68.4773 92.5499 68.5191 92.4705C68.5567 92.391 68.2431 91.8265 68.3226 91.7094C68.402 91.5923 68.7323 91.2995 68.8117 91.241C68.8912 91.1824 69.6145 91.4166 69.7525 91.3957C69.8905 91.3748 69.7901 90.8855 69.8487 90.827C69.9072 90.7684 69.5936 90.2206 69.7107 90.0826C69.8278 89.9446 70.2584 89.0831 70.3755 88.9493C70.4926 88.8113 70.71 88.7945 70.9441 88.8113C71.1783 88.8322 71.2577 89.3215 71.2953 89.4971C71.333 89.6727 71.4333 89.6937 71.588 89.9488C71.7427 90.2039 71.6089 90.3586 71.9392 90.4171C72.2737 90.4757 72.5831 90.5133 72.7211 90.4966C72.8591 90.4799 72.9176 90.0659 73.0556 90.0659C73.1936 90.0659 73.6242 90.0868 73.7413 90.0868C73.8584 90.0868 73.896 90.4213 74.0758 90.4004C74.2514 90.3795 75.0751 90.5384 75.2507 90.5175C75.4263 90.4966 75.4054 90.1662 75.4054 90.0868C75.4054 90.0073 74.9162 89.6351 74.9371 89.5389C74.958 89.4427 75.3678 89.1082 75.581 88.9535C75.7943 88.7987 76.342 88.3094 76.4632 88.2885C76.5803 88.2676 76.6389 88.8949 76.7559 88.9325C76.873 88.9702 77.3831 88.9116 77.5169 88.8531C77.6549 88.7945 78.2611 88.0711 78.4158 87.8745C78.5705 87.6779 79.1392 87.3643 79.2186 87.3267C79.2981 87.289 79.1225 86.7997 79.2186 86.6826C79.3148 86.5655 80.3726 86.0762 80.4312 86.0177C80.4897 85.9592 80.0005 85.0977 80.0967 85.0182C80.1928 84.9388 80.5482 85.1562 80.7029 85.0768C80.8576 84.9973 81.3468 84.5875 81.4639 84.4704C81.581 84.3533 81.3092 84.1191 81.4639 84.0605C81.6186 84.002 82.5594 84.4327 82.735 84.4327C82.9106 84.4327 83.2827 83.6716 83.3998 83.6298C83.5168 83.5921 83.5754 83.864 83.7134 83.9434C83.8513 84.0229 84.3991 84.002 84.5747 84.0229C84.7503 84.0438 84.8297 83.9643 84.9677 83.9853C85.1057 84.0062 85.0262 84.416 85.1642 84.4955C85.3022 84.5749 85.7496 85.1813 85.9461 85.2566C86.1426 85.336 86.6109 85.2357 86.728 85.2566C86.845 85.2775 87.0206 85.8253 87.1963 85.7835C87.3719 85.7459 87.882 85.1771 88.0367 85.1395C88.1914 85.1018 88.6638 85.1395 88.8771 85.1018C89.0903 85.0642 89.9516 84.278 90.1691 84.2027C90.3823 84.1233 92.1049 84.1065 92.1844 84.1442C92.2638 84.1818 92.1467 84.5958 92.1844 84.6711C92.222 84.7506 92.6736 85.1228 92.7906 85.1604C92.9077 85.198 93.2004 84.9638 93.376 84.8091C93.5516 84.6544 93.8276 84.1233 93.9028 84.0647C93.9823 84.0062 94.1161 84.3784 94.2373 84.5164C94.3544 84.6544 94.7641 85.1604 94.9606 85.2022C95.1572 85.2399 95.7634 84.7924 95.8596 84.7506C95.9558 84.7129 96.2693 84.9847 96.4868 85.1228C96.7 85.2608 96.838 85.612 96.9969 85.7501C97.1516 85.8881 97.4861 85.9257 97.6617 85.8881C97.8373 85.8504 98.0714 85.3026 98.2094 85.2231C98.3474 85.1437 99.0122 85.1646 99.1502 85.1437C99.2881 85.1228 99.6184 84.7715 99.7564 84.7129C99.8944 84.6544 100.676 84.7506 100.814 84.7338C100.952 84.7129 101.224 85.2022 101.383 85.2231C101.538 85.244 102.537 85.2817 102.712 85.2022C102.888 85.1228 103.026 84.3616 103.122 84.2236C103.218 84.0856 103.766 83.9894 103.866 83.9685C103.963 83.9476 104.063 84.3031 104.239 84.3616C104.414 84.4202 105 84.6376 105.138 84.6376C105.276 84.6376 106.02 85.6748 106.154 85.7333C106.292 85.7919 106.547 85.8881 106.643 85.8295C106.739 85.771 106.877 85.2817 106.977 85.2231C107.073 85.1646 107.642 85.5368 107.738 85.4782C107.834 85.4197 108.541 84.7757 108.6 84.6962C108.658 84.6167 108.541 83.8347 108.6 83.7552C108.658 83.6758 108.913 83.5001 109.009 83.4207C109.105 83.3412 109.402 83.5754 109.499 83.5169C109.595 83.4583 109.774 83.1447 109.791 83.0067C109.812 82.8687 109.536 82.3626 109.578 82.2456C109.616 82.1285 110.147 81.3841 110.28 81.2293C110.418 81.0746 111.338 80.6815 111.593 80.6439C111.848 80.6062 112.179 80.9199 112.279 80.9951C112.375 81.0746 113.061 81.3673 113.14 81.3464C113.22 81.3255 113.592 80.8571 113.688 80.8195C113.784 80.7819 114.273 80.878 114.315 80.9951C114.353 81.1122 114.512 81.543 114.666 81.5639C114.821 81.5848 115.273 81.4844 115.49 81.4844C115.703 81.4844 116.059 81.9361 116.193 81.9946C116.33 82.0532 116.761 81.9361 116.895 81.9152C117.033 81.8943 117.56 81.1708 117.639 80.9742C117.719 80.7777 117.894 80.3888 118.011 80.3469C118.128 80.3093 118.559 80.5602 118.756 80.5435C118.952 80.5226 119.207 80.2089 119.341 80.1713C119.479 80.1337 119.517 79.7029 119.479 79.4687C119.441 79.2345 119.537 79.038 119.634 78.9C119.73 78.762 119.947 78.6867 119.889 78.4483C119.83 78.2141 119.91 77.4697 119.897 77.2565C119.889 77.0432 120.14 76.5539 120.336 76.3573C120.533 76.1608 121.022 76.006 121.256 76.0437C121.49 76.0813 121.707 76.4535 121.862 76.3364C122.017 76.2193 122.255 75.8262 122.351 75.592C122.448 75.3578 122.468 74.8895 122.351 74.672C122.234 74.4587 121.783 74.2412 121.649 74.0656C121.511 73.89 121.452 73.3421 121.452 73.1456C121.452 72.949 121.845 72.4597 122.021 72.2464C122.197 72.0332 122.627 71.5606 122.648 71.3264C122.669 71.0922 122.611 70.582 122.569 70.3269C122.531 70.0718 122.356 69.7582 122.489 69.5658C122.627 69.3692 122.979 69.0765 123.117 68.8632C123.254 68.6499 123.392 68.9594 123.547 68.9427C123.702 68.9218 123.94 68.767 124.074 68.7879C124.212 68.8089 124.308 69.1601 124.484 69.043C124.659 68.9259 125.5 67.9474 125.638 67.7926C125.776 67.6379 125.462 67.3033 125.521 67.1277C125.579 66.9521 125.797 66.7179 125.93 66.5799C126.068 66.4419 126.244 66.7346 126.478 66.6593C126.712 66.584 127.181 66.17 127.302 65.9944C127.419 65.8187 127.77 65.5636 127.85 65.4675C127.929 65.3713 127.44 64.8987 127.36 64.7063C127.281 64.5098 127.105 64.5892 126.93 64.493C126.754 64.3969 126.85 63.9076 126.951 63.711C127.047 63.5145 127.36 63.4977 127.419 63.3388C127.477 63.1841 127.498 62.4982 127.536 62.2431C127.574 61.988 127.649 61.8333 127.858 61.6744C128.063 61.5197 127.967 61.988 128.222 61.7915C128.477 61.5949 129.004 61.2813 129.2 61.1056C129.397 60.93 129.769 60.4993 129.71 60.2818C129.652 60.0685 129.614 59.4412 129.514 59.2823C129.417 59.1276 129.179 59.2028 129.162 59.0481C129.142 58.8934 129.397 58.655 129.497 58.5003C129.593 58.3455 129.869 58.5588 130.007 58.5003C130.145 58.4417 130.73 57.9315 130.906 57.7392C131.082 57.5426 130.827 57.1119 130.906 56.9153C130.985 56.7188 131.182 56.4636 131.316 56.288C131.454 56.1124 131.725 55.9158 131.688 55.7402C131.65 55.5645 131.454 55.1338 131.337 55.0543C131.22 54.9749 131.023 55.0752 130.868 55.0543C130.714 55.0334 130.714 54.6027 130.751 54.4856C130.789 54.3685 131.299 54.0757 131.454 53.8792C131.608 53.6826 131.404 53.2937 131.692 53.1181C131.981 52.9424 132.863 52.3737 133.017 52.2189C133.172 52.0642 133.369 52.2398 133.603 52.0809C133.837 51.9262 133.916 51.5707 133.975 51.2194C134.033 50.8682 134.385 50.3203 134.443 50.1447C134.502 49.969 134.385 49.8728 134.443 49.7348C134.502 49.5968 135.087 49.6554 135.204 49.4797C135.321 49.3041 135.359 48.5597 135.321 48.3841C135.284 48.2084 134.987 48.1499 134.97 47.991C134.949 47.8362 135.204 47.4055 135.225 47.188C135.246 46.9747 135.752 46.8535 135.831 46.6987C135.911 46.544 135.677 45.9752 135.677 45.8582C135.677 45.7411 135.551 45.5236 135.848 45.3479C136.145 45.1723 136.459 45.2518 136.538 45.1347C136.617 45.0176 136.969 44.3108 137.006 44.0975C137.044 43.8843 136.831 43.5873 136.889 43.4702C136.948 43.3531 137.533 43.098 137.73 42.96C137.926 42.822 138.102 43.2151 138.256 43.0771C138.411 42.9391 138.921 42.822 139.08 42.6673C139.235 42.5126 139.394 41.9229 139.356 41.7096C139.318 41.4963 139.122 41.1409 139.143 40.9652C139.164 40.7896 139.456 40.455 139.477 40.3212C139.498 40.1832 139.126 39.2841 139.105 39.1084C139.084 38.9328 138.829 38.5606 138.93 38.3473C139.026 38.134 139.264 37.4858 139.381 37.3311C139.498 37.1764 139.674 37.3311 139.849 37.2725C140.025 37.214 140.36 37.0383 140.594 36.8418C140.828 36.6452 140.711 36.432 140.87 36.273C141.024 36.1183 141.242 36.2354 141.476 36.0598C141.71 35.8841 141.965 35.4534 142.061 35.3739C142.157 35.2945 142.609 35.6081 142.785 35.4701C142.96 35.3321 143.274 35.1356 143.412 34.9808C143.55 34.8261 143.332 33.8851 143.412 33.7304C143.491 33.5757 143.922 33.5171 144.056 33.3791C144.194 33.2411 144.114 32.4214 144.152 32.2458C144.189 32.0702 144.562 31.8151 144.737 31.6603C144.913 31.5056 145.13 31.2881 145.168 31.1501C145.206 31.0121 145.03 30.6023 145.168 30.4643C145.306 30.3263 145.578 30.1506 145.716 30.0126C145.854 29.8746 146.008 30.3472 146.184 30.2092C146.36 30.0712 146.497 29.7993 146.673 29.6404C146.849 29.4857 146.966 29.699 147.183 29.7784C147.396 29.8579 147.279 30.1715 147.614 30.1715C147.948 30.1715 148.571 30.251 148.709 30.1339C148.847 30.0168 148.943 29.469 148.985 29.2348C149.023 29.0006 148.693 28.666 148.985 28.4318C149.278 28.1976 149.65 27.8045 149.826 27.7293C150.001 27.6498 150.277 28.022 150.47 28.16C150.666 28.298 150.549 28.5907 150.996 28.7873C151.448 28.9839 152.171 29.2975 152.368 29.2975C152.564 29.2975 153.208 29.0424 153.405 28.9629C153.601 28.8835 153.952 29.1762 154.245 29.08C154.538 28.9839 154.91 27.9844 155.127 27.7209C155.341 27.4574 155.048 27.3194 155.403 27.1061C155.755 26.8929 156.089 26.6545 156.227 26.5959C156.365 26.5374 156.754 26.872 156.892 26.7716C157.03 26.6754 157.322 26.2447 157.381 26.069C157.44 25.8934 157.009 25.4417 157.03 25.2452C157.051 25.0486 157.314 24.7559 157.389 24.6388C157.46 24.5217 158.188 24.9524 158.401 24.7768C158.614 24.6011 158.89 24.2875 159.045 24.0909C159.2 23.8944 159.083 23.6393 159.242 23.3884C159.396 23.1333 159.752 22.8029 159.927 22.6272C160.103 22.4516 159.948 22.138 159.789 22.0418C159.635 21.9456 159.476 21.9623 159.279 21.9038C159.083 21.8452 158.732 21.5901 158.652 21.4145C158.573 21.2388 158.376 21.1385 158.556 20.9628C158.732 20.7872 158.966 20.8666 159.066 20.7286C159.162 20.5906 159.731 19.6706 159.789 19.4364C159.848 19.2022 159.614 19.0266 159.513 18.8509C159.417 18.6753 159.221 18.8718 159.083 18.7715C158.945 18.6753 159.045 18.1651 158.928 18.0271C158.811 17.8891 158.439 17.7343 158.401 17.5963C158.364 17.4583 158.46 16.9105 158.343 16.7725C158.226 16.6345 157.933 16.9105 157.816 16.8896C157.699 16.8687 157.72 16.5174 157.502 16.4965C157.289 16.4756 156.992 16.7097 156.955 16.7892C156.917 16.8687 156.896 17.1238 156.8 17.1238C156.704 17.1238 156.449 16.6721 156.311 16.6554C156.173 16.6345 155.667 16.7516 155.487 16.7934C155.311 16.831 155.152 17.5378 154.843 17.5378C154.529 17.5378 154.003 17.2827 153.806 17.2032C153.61 17.1238 153.238 17.2618 153.045 17.1447C152.849 17.0276 152.966 16.6512 152.89 16.4965C152.811 16.3417 153.146 16.1243 153.045 15.9486C152.949 15.773 152.907 15.5764 152.752 15.3799C152.598 15.1833 152.477 15.2628 152.301 15.0871C152.125 14.9115 152.088 14.5769 152.029 14.4431C151.971 14.3051 152.364 13.9747 152.263 13.8576C152.167 13.7405 151.364 13.3893 151.189 13.2512C151.013 13.1132 151.226 12.3312 151.072 12.2518C150.917 12.1723 150.662 12.3312 150.545 12.2518C150.428 12.1723 150.486 11.8419 150.369 11.8001C150.252 11.7625 149.901 12.2518 149.684 12.2685C149.47 12.2894 149.29 11.8963 149.136 11.8754C148.981 11.8545 148.509 12.051 148.216 12.1096C147.923 12.1681 148.099 12.6365 147.923 12.695C147.748 12.7536 147.61 12.2643 147.514 12.1263C147.417 11.9883 147.514 11.637 147.476 11.5199C147.438 11.4028 147.045 11.1477 146.891 11.0097C146.736 10.8717 146.911 10.2486 146.832 10.1106C146.753 9.97257 146.263 9.40801 146.205 9.32855C146.146 9.24909 146.439 9.07345 146.439 8.95635C146.439 8.83926 146.535 8.34997 146.439 8.27051C146.343 8.19105 145.737 8.36669 145.54 8.27051C145.343 8.17432 144.971 7.97777 145.03 7.89831C145.088 7.81885 145.185 7.66412 145.126 7.52612C145.068 7.38811 144.833 7.23338 144.733 7.13301C144.637 7.03682 145.302 6.37189 145.222 6.27152C145.143 6.17534 144.537 6.15443 144.323 6.09588C144.11 6.03733 144.068 5.60659 143.813 5.5104C143.558 5.41422 143.441 6.11679 143.265 6.19625C143.09 6.2757 142.638 6.29243 142.383 6.31334C142.128 6.33425 141.915 6.91973 141.873 6.97828C141.836 7.03682 142.086 7.29192 142.086 7.37138C142.086 7.45084 141.873 7.46757 141.656 7.46757C141.442 7.46757 140.991 7.35047 140.815 7.17483C140.64 6.99919 140.385 7.09537 140.268 7.11628C140.151 7.13719 140.151 7.46757 140.033 7.48848C139.916 7.50939 139.741 6.91973 139.603 6.91973C139.465 6.91973 139.055 7.52612 138.917 7.50521C138.779 7.4843 138.273 7.2292 138.077 7.25011C137.88 7.27102 137.491 7.44666 137.316 7.46339C137.14 7.48011 137.178 8.10741 137.04 8.12832C136.902 8.14923 136.806 7.77703 136.668 7.79376C136.53 7.81467 136.099 7.81467 135.965 7.88995C135.827 7.96941 135.965 8.24123 135.827 8.26214C135.689 8.28305 135.535 7.98613 135.359 7.96941C135.183 7.9485 134.987 8.3416 134.987 8.49634C134.987 8.65107 135.066 9.04417 134.87 9.04417C134.673 9.04417 134.36 8.63434 134.146 8.65107C133.933 8.67198 133.013 8.59252 132.854 8.57161C132.7 8.5507 132.386 8.8058 132.227 8.68871C132.073 8.57161 132.031 8.4127 131.893 8.2956C131.755 8.1785 132.068 7.59303 131.972 7.47175C131.876 7.35466 131.424 6.92391 131.249 6.86536C131.073 6.80682 130.818 6.88627 130.76 6.82773C130.701 6.76918 130.935 6.06661 130.914 5.96624C130.893 5.87005 130.425 5.69441 130.329 5.48531C130.233 5.28039 130.408 5.08384 130.291 4.92911C130.174 4.77437 129.957 4.38127 129.861 4.24326C129.765 4.10526 130.036 3.87107 130.074 3.79161C130.112 3.71215 129.994 2.93012 129.819 2.81302C129.643 2.69593 129.133 2.65829 128.958 2.67502C128.782 2.69593 128.82 2.93012 128.682 2.95103C128.544 2.97194 128.113 2.7252 127.937 2.67084C127.762 2.61647 127.703 2.10627 127.624 1.95154C127.544 1.7968 127.661 1.36606 127.507 1.22805C127.352 1.09005 126.666 0.935315 126.507 0.81822C126.353 0.701124 125.901 0.0152796 125.705 -0.00563035C125.508 -0.0265403 125.098 0.893495 125.002 0.893495C124.906 0.893495 124.279 0.834948 124.141 0.79731C124.003 0.759672 123.944 1.09005 123.731 1.11096C123.518 1.13187 122.774 1.0315 122.673 1.16951C122.577 1.30751 122.652 1.71735 122.615 1.87208C122.577 2.02681 122.477 2.32373 122.28 2.34046C122.084 2.36137 121.105 1.75498 120.834 1.73407C120.558 1.71316 120.403 2.08536 120.169 2.18573C119.935 2.28191 120.014 2.65411 119.797 2.65411C119.583 2.65411 119.228 2.44083 119.094 2.44083C118.956 2.44083 118.45 3.22286 118.233 3.28141C118.02 3.33995 117.627 3.36086 117.489 3.22286C117.351 3.08485 117.627 2.69593 117.43 2.59556C117.234 2.49938 116.569 2.31955 116.372 2.22337C116.176 2.12718 115.708 1.81353 115.49 1.85117C115.277 1.88881 115.139 2.3781 114.963 2.43665C114.788 2.49519 114.57 2.34046 114.416 2.29864C114.261 2.261 113.964 2.18155 113.985 2.10209C114.006 2.02263 114.298 1.84699 114.16 1.7508C114.023 1.65462 113.905 1.63371 113.709 1.47479C113.512 1.32006 113.571 0.906041 113.395 0.830766C113.22 0.751308 112.81 1.10678 112.572 1.16532C112.338 1.22387 112.003 1.20296 111.848 1.08587C111.694 0.968771 111.886 0.538027 111.694 0.341474C111.497 0.144921 111.204 0.0863732 110.991 0.186741C110.778 0.282926 110.209 0.521299 109.917 0.538027C109.624 0.558937 108.725 0.655123 108.353 0.575665C107.981 0.496207 108.039 0.910223 107.747 0.947861C107.454 0.985499 107.316 0.851676 106.986 0.889313C106.651 0.926951 106.283 1.72989 105.97 1.78844C105.656 1.84699 105.188 1.8679 105.071 1.78844C104.954 1.70898 104.619 1.43715 104.385 1.4957C104.151 1.55425 103.875 2.84648 103.72 2.98449C103.565 3.12249 103.975 3.39432 103.816 3.51141C103.662 3.62851 102.779 4.29345 102.683 4.41054C102.587 4.52764 102.704 5.07548 102.545 5.17166C102.391 5.26785 101.604 5.75714 101.529 5.93278C101.45 6.10842 101.55 6.91136 101.471 7.02846C101.391 7.14556 101.136 7.43829 101.061 7.55539C100.982 7.67249 101.099 8.22032 100.965 8.31651C100.827 8.4127 100.338 9.00236 100.321 9.14036C100.3 9.27837 100.262 9.72584 100.183 9.84293C100.103 9.96003 99.5975 10.1775 99.4596 10.3322C99.3216 10.487 99.4596 10.9595 99.3801 11.1352C99.3007 11.3108 99.146 11.1352 99.008 11.1561C98.87 11.177 98.4812 11.5074 98.3432 11.5283C98.2052 11.5492 97.8164 10.9804 97.6199 11.0013C97.4233 11.0223 97.1683 11.6286 96.9551 11.6663C96.7418 11.7039 96.562 11.5492 96.3697 11.6454C96.1732 11.7416 96.2903 11.9967 96.1355 12.0552C95.9808 12.1137 95.0192 11.8586 94.8645 11.9381C94.7098 12.0176 94.8645 12.6616 94.7683 12.7787C94.6721 12.8958 94.3586 13.3265 94.1997 13.4227C94.045 13.5189 93.5725 13.8158 93.4387 13.8744C93.3007 13.9329 93.3593 14.2466 93.2422 14.4013C93.1251 14.556 92.9871 14.694 92.7739 14.7359C92.5607 14.7735 92.1885 14.6397 92.1091 14.5602C92.0297 14.4808 91.5405 14.8948 91.2687 14.97C90.9927 15.0495 90.6248 15.3046 90.4659 15.4802C90.3112 15.6559 90.5035 16.049 90.3279 16.1075C90.1523 16.1661 89.9767 16.4003 89.7426 16.3626C89.5084 16.325 89.2534 16.2246 89.2534 16.0699C89.2534 15.9152 89.6464 15.5597 89.567 15.3673C89.4875 15.1708 89.2158 14.9951 88.9816 14.9742C88.7475 14.9533 88.4924 14.5644 88.3377 14.5226C88.183 14.4849 87.928 14.7568 87.8109 14.7777C87.6938 14.7986 87.8694 15.1708 87.7523 15.1875C87.6353 15.2084 87.4011 14.9115 87.2841 14.9742C87.167 15.0328 87.0708 15.267 86.8534 15.2879C86.6402 15.3088 86.7154 14.8362 86.5984 14.7191C86.4813 14.602 87.1252 14.4431 87.0875 14.3093C87.0499 14.1713 86.5984 13.7614 86.5022 13.6444C86.406 13.5273 86.3057 13.1551 86.0715 13.1174C85.8374 13.0798 85.3273 13.1551 85.1893 13.2345C85.0513 13.314 85.1099 13.6653 84.9552 13.7238C84.8005 13.7824 84.4283 13.6444 84.2904 13.6067C84.1524 13.5691 84.1357 13.176 84.0353 12.9794C83.9391 12.7829 84.0353 12.373 83.8388 12.2768C83.6423 12.1807 83.3705 12.3354 83.174 12.2768C82.9775 12.2183 82.8604 12.0008 82.6472 12.1388C82.4339 12.2768 82.1203 12.8247 81.8444 13.0589C81.5684 13.2931 81.3176 13.3725 81.0416 13.3934C80.7656 13.4143 80.59 13.5482 80.4562 13.728C80.3183 13.9036 80.6319 14.2758 80.5357 14.372C80.4395 14.4682 80.0465 14.4515 80.0256 14.6062C80.0047 14.7609 80.1845 15.1917 80.1427 15.3673C80.105 15.543 79.6911 15.8357 79.6326 15.9737C79.574 16.1117 79.6326 16.8561 79.6326 16.9899C79.6326 17.1279 79.8291 17.634 79.6326 17.7343C79.4361 17.8305 78.9468 17.8891 78.8507 17.91C78.7545 17.9309 78.7336 17.3412 78.6165 17.3245C78.4995 17.3036 77.9894 17.7552 77.8556 17.7761C77.7176 17.7971 77.1699 17.6591 77.0152 17.6214C76.8605 17.5838 76.3713 17.7176 76.1329 17.68C75.8988 17.6423 75.8403 17.9936 75.6646 17.9936C75.489 17.9936 75.234 17.8556 75.0584 17.8556C74.8828 17.8556 74.4897 18.2864 74.2765 18.3658C74.0633 18.4453 74.0633 18.9513 73.8458 18.9513C73.6326 18.9513 73.4528 18.9889 73.319 18.8927C73.181 18.7966 73.1643 18.5415 72.9678 18.4829C72.7713 18.4244 72.1859 18.6 71.9894 18.5791C71.7929 18.5582 71.5588 18.2864 71.3455 18.2278C71.1323 18.1693 70.8187 18.5415 70.6807 18.5624C70.5427 18.5833 70.1706 18.2278 70.0368 18.2696C69.8988 18.3073 69.7441 18.6795 69.5685 18.7213C69.3929 18.7589 68.9999 18.5833 68.8076 18.6042C68.6111 18.6251 68.5525 18.1734 68.4145 18.1358C68.2766 18.0982 67.7288 18.8593 67.5323 18.9597C67.3358 19.0558 67.064 18.8049 66.9051 18.7631C66.7504 18.7255 66.4954 18.7045 66.0815 18.8007C65.6717 18.8969 65.747 19.2524 65.5128 19.3109C65.2787 19.3695 64.455 19.0349 64.2208 19.0767C63.9867 19.1144 63.8864 19.5284 63.8111 19.6455C63.7317 19.7626 64.0243 19.9591 63.9658 20.0553C63.9073 20.1515 63.6731 20.3899 63.6313 20.5237C63.5937 20.6617 63.786 21.0925 63.6898 21.1677C63.5937 21.2472 62.9665 21.381 62.8494 21.381C62.7324 21.381 62.3602 21.5567 62.2808 21.7156C62.2014 21.8703 62.4564 22.2049 62.5735 22.322C62.6905 22.4391 62.7282 22.598 62.6529 22.8489C62.5735 23.104 62.377 23.4176 62.3393 23.6727C62.3017 23.9278 62.494 24.1829 62.5735 24.3C62.6529 24.4171 62.4564 24.6346 62.3602 24.8102C62.2641 24.9859 62.2641 25.2786 62.4397 25.3204C62.6153 25.3581 63.0083 25.4584 63.2006 25.5965C63.3972 25.7345 63.3177 26.0481 63.4139 26.1067C63.5101 26.1652 63.8236 26.1443 63.8822 26.2447C63.9407 26.3408 64.0369 26.7716 64.0787 26.8301C64.1163 26.8887 64.3546 26.8678 64.6473 26.8887C64.94 26.9096 65.0194 27.1814 64.7644 27.2609C64.5093 27.3403 64.2543 27.1814 63.9825 27.1647C63.7066 27.1438 63.3177 26.872 63.0418 26.9096C62.7658 26.9472 62.3184 27.2818 61.9839 27.4951C61.6494 27.7084 61.5742 28.2395 61.5742 28.4151C61.5742 28.5907 61.0641 28.9629 60.6543 29.0215C60.2446 29.08 59.5212 29.3561 59.2453 29.3561C58.9693 29.3561 58.6599 29.1219 58.384 28.9839C58.108 28.8458 57.7401 28.9629 57.5226 28.9839C57.3094 29.0048 56.9958 29.4146 56.6237 29.5526C56.2516 29.6906 55.8795 29.6112 55.8 29.4564C55.7206 29.3017 55.545 29.0048 55.3694 29.0048C55.1937 29.0048 54.784 29.4941 54.4871 29.5735C54.1945 29.653 53.7053 29.4773 53.5296 29.5526C53.354 29.6321 52.7478 30.1381 52.4133 30.1966C52.0788 30.2552 51.1422 30.2343 50.9833 30.2343C50.8286 30.2343 50.4147 29.8244 50.1806 29.7826C49.9464 29.745 49.0642 29.8997 48.8677 29.9206C48.6712 29.9415 47.6928 29.745 47.5381 29.6864C47.3834 29.6279 47.4001 29.4732 47.1659 29.3351C46.9318 29.1971 45.7945 29.08 45.6022 29.08C45.4057 29.08 44.8998 29.8035 44.7409 29.8244C44.5862 29.8453 43.959 29.3728 43.7625 29.3561C43.566 29.3351 43.1939 29.7492 43.0392 29.7868C42.8845 29.8244 42.0231 29.9833 41.8475 30.0419C41.6719 30.1004 41.7681 29.7868 41.4963 29.7492C41.2204 29.7115 39.6984 29.9457 39.5019 29.9457C39.3054 29.9457 39.3054 29.653 39.1883 29.5735C39.0712 29.4941 38.3479 29.3393 38.1305 29.2808C37.9172 29.2222 37.934 29.377 37.5618 29.2808C37.1897 29.1846 36.8385 28.3231 36.642 28.1642C36.4455 28.0095 36.1528 28.1056 35.9563 27.93C35.7598 27.7544 35.3877 27.1061 35.212 27.0894C35.0364 27.0685 34.6434 27.01 34.4887 27.0309C34.334 27.0518 34.3716 27.286 34.1751 27.286C33.9786 27.286 33.803 26.9932 33.7445 26.8552C33.6859 26.7172 34.0204 26.4454 33.8824 26.2279C33.7445 26.0147 33.2385 25.4668 33.042 25.3288C32.8455 25.1908 32.5528 25.4083 32.2392 25.3079C31.9257 25.2117 31.3988 24.5844 31.2985 24.4673C31.2023 24.3502 31.3779 23.8986 31.2985 23.8024C31.219 23.7062 30.8093 22.92 30.6713 22.7653C30.5333 22.6105 30.1821 22.5311 29.9689 22.4307C29.7556 22.3345 29.2455 22 29.1285 21.8452C29.0114 21.6905 29.0908 21.2765 28.8943 21.1217C28.6978 20.967 27.8365 20.9085 27.6024 20.8666C27.3682 20.829 27.1717 20.9837 26.9376 21.0046C26.7034 21.0255 26.6616 20.6324 26.6031 20.5363C26.5445 20.4401 26.8163 20.1264 26.6407 20.047C26.4651 19.9675 25.9759 20.047 25.7208 20.0679C25.4658 20.0888 24.801 20.5948 24.6045 20.7914C24.408 20.9879 23.254 21.6905 23.2163 21.8076C23.1787 21.9247 23.5884 22.2592 23.5675 22.414C23.5466 22.5687 23.0993 22.9994 23.0784 23.1374C23.0574 23.2755 23.4505 23.6853 23.4128 23.84C23.3752 23.9948 23.0993 24.0742 23.0784 24.2499C23.0574 24.4255 23.116 24.7391 23.0574 24.9357C22.9989 25.1323 22.723 25.2493 22.5306 25.2117C22.3341 25.1741 22.0623 25.4459 21.9034 25.5254C21.7487 25.6048 21.3557 25.4877 21.1801 25.563C21.0045 25.6425 21.0254 25.9728 21.1425 26.0732C21.2596 26.1694 21.8658 26.3492 22.0038 26.4663C22.1418 26.5834 21.8491 26.7214 22.0247 26.9765C22.2003 27.2316 22.6101 27.562 22.5515 27.7C22.493 27.838 22.2003 28.0931 22.1209 28.2478C22.0414 28.4026 22.2965 28.8542 22.4135 29.1093C22.5306 29.3644 22.2756 30.1841 22.3759 30.3597C22.4721 30.5354 22.9822 30.987 23.0784 31.0623C23.1745 31.1418 22.8442 31.1585 22.5306 31.1794C22.217 31.2003 21.6484 30.9828 21.4143 31.0623C21.1801 31.1418 20.532 31.5892 20.3188 31.6478C20.1056 31.7063 19.5578 31.9405 19.2442 31.9238C18.9307 31.9029 18.1488 31.8862 17.9523 31.8652C17.7557 31.8443 17.8937 30.8281 17.7767 30.711C17.6596 30.5939 17.5425 30.7319 17.2875 30.9243C17.0324 31.1208 16.7397 31.4512 16.7397 31.6478C16.7397 31.8443 16.9153 32.1371 16.7397 32.158C16.5641 32.1789 15.0965 32.2542 14.9795 32.2374C14.8624 32.2165 14.9209 31.5516 14.7453 31.3383C14.5697 31.125 14.4108 30.3388 14.1767 30.1841C13.9425 30.0294 13.2192 30.1046 13.0018 30.067C12.7885 30.0294 12.592 29.3226 12.4164 29.285C12.2283 29.2348 10.8485 29.4397 10.8485 29.4397Z" fill="#224694"/>
</svg>
